<svg xmlns="http://www.w3.org/2000/svg" width="680" height="180" viewBox="0 0 680 180" role="img" aria-labelledby="title desc">
  <title id="title">sennik.tv logo outlined</title>
  <desc id="desc">Uproszczony logotyp sennik.tv z tekstem zamienionym na krzywe.</desc>
  <style>
    .wordmark { font-family: 'Noto Serif Display', 'Cormorant Garamond', 'Playfair Display', Georgia, serif; font-weight: 600; font-size: 78px; letter-spacing: -1.25px; }
    .tagline { font-family: 'Noto Sans', Arial, sans-serif; font-size: 17px; letter-spacing: 2.6px; text-transform: uppercase; }
    
  </style>

  <g transform="translate(18 20) scale(0.92)">
    
    <g id="mark">
      <path d="M 66.500 5.398 A 48.000 48.000 0 1 0 66.500 98.602 A 48.000 48.000 0 0 1 66.500 5.398 Z" fill="#D3A052"/>
      <path d="M 87.000 41.000 C 91.760 50.240 91.760 50.240 101.000 55.000 C 91.760 59.760 91.760 59.760 87.000 69.000 C 82.240 59.760 82.240 59.760 73.000 55.000 C 82.240 50.240 82.240 50.240 87.000 41.000 Z" fill="#182344" opacity="1.0"/>
      
    <g class="cloud" transform="translate(10.000 78.000) scale(1.02000)">
      <rect x="6" y="27" width="92" height="24" rx="12" fill="#B7ABD5"/>
      <ellipse cx="28" cy="31" rx="25" ry="17" fill="#B7ABD5"/>
      <ellipse cx="58" cy="28" rx="34" ry="21" fill="#9B8AC5"/>
      <ellipse cx="85" cy="34" rx="25" ry="15" fill="#74679F"/>
    </g>
    </g>
  </g>
  <g transform="translate(154 113) scale(1 -1)">
    <path d="M 17.002 -0.780 Q 10.067 -0.780 6.435 1.633 Q 2.803 4.058 2.803 8.032 Q 2.803 10.372 3.900 11.615 Q 4.997 12.870 6.472 13.297 Q 7.958 13.723 9.128 13.723 Q 9.128 6.398 11.115 3.193 Q 13.102 0.000 17.708 0.000 Q 21.608 0.000 23.948 1.987 Q 26.288 3.973 26.288 8.032 Q 26.288 10.688 25.228 12.200 Q 24.180 13.723 21.913 14.893 Q 19.658 16.063 15.990 17.550 Q 12.163 19.110 9.360 20.780 Q 6.557 22.462 5.033 24.802 Q 3.510 27.142 3.510 30.737 Q 3.510 36.660 7.763 39.658 Q 12.017 42.668 19.268 42.668 Q 25.972 42.668 29.092 40.438 Q 32.212 38.220 32.212 35.258 Q 32.212 32.992 30.530 31.663 Q 28.860 30.347 25.192 30.347 Q 25.192 36.733 23.473 39.305 Q 21.767 41.888 18.330 41.888 Q 15.368 41.888 13.138 40.243 Q 10.920 38.610 10.920 34.637 Q 10.920 32.053 12.053 30.493 Q 13.187 28.933 15.600 27.763 Q 18.013 26.593 21.913 25.118 Q 27.763 22.778 30.725 20.000 Q 33.698 17.233 33.698 12.163 Q 33.698 6.008 29.360 2.608 Q 25.033 -0.780 17.002 -0.780 Z M 60.689 -0.780 Q 51.085 -0.780 45.979 4.838 Q 40.872 10.457 40.872 20.670 Q 40.872 31.590 45.710 37.160 Q 50.549 42.742 59.434 42.742 Q 67.550 42.742 72.230 38.025 Q 76.910 33.308 76.910 24.022 L 76.910 22.157 L 51.170 22.157 Q 51.244 10.298 53.693 5.180 Q 56.155 0.073 61.859 0.073 Q 66.064 0.073 69.025 2.645 Q 71.999 5.228 72.779 10.993 Q 74.095 10.688 74.680 9.787 Q 75.265 8.897 75.265 7.727 Q 75.265 5.777 73.669 3.778 Q 72.072 1.792 68.830 0.500 Q 65.600 -0.780 60.689 -0.780 Z M 66.612 22.937 Q 66.612 33.382 65.015 37.672 Q 63.419 41.962 59.360 41.962 Q 55.229 41.962 53.315 37.672 Q 51.402 33.382 51.170 22.937 L 66.612 22.937 Z M 82.051 0.000 L 82.051 0.780 L 82.916 0.780 Q 85.330 0.780 87.048 1.913 Q 88.766 3.047 88.766 6.630 L 88.766 35.417 Q 88.766 38.842 87.048 39.926 Q 85.330 41.023 82.916 41.023 L 82.210 41.023 L 82.210 41.803 L 98.821 41.803 L 98.821 34.637 L 98.980 34.637 Q 99.991 38.147 101.819 39.902 Q 103.660 41.657 105.878 42.193 Q 108.108 42.742 110.290 42.742 Q 117.151 42.742 120.539 39.146 Q 123.940 35.563 123.940 27.617 L 123.940 6.947 Q 123.940 3.120 125.219 1.950 Q 126.511 0.780 129.400 0.780 L 129.716 0.780 L 129.716 0.000 L 113.800 0.000 L 113.800 30.188 Q 113.800 35.258 112.240 38.062 Q 110.680 40.877 107.011 40.877 Q 103.891 40.877 102.136 38.963 Q 100.381 37.050 99.638 33.772 Q 98.906 30.493 98.906 26.520 L 98.906 6.630 Q 98.906 3.047 100.576 1.913 Q 102.258 0.780 104.671 0.780 L 105.451 0.780 L 105.451 0.000 L 82.051 0.000 Z M 133.453 0.000 L 133.453 0.780 L 134.318 0.780 Q 136.732 0.780 138.450 1.913 Q 140.168 3.047 140.168 6.630 L 140.168 35.417 Q 140.168 38.842 138.450 39.926 Q 136.732 41.023 134.318 41.023 L 133.612 41.023 L 133.612 41.803 L 150.223 41.803 L 150.223 34.637 L 150.382 34.637 Q 151.393 38.147 153.221 39.902 Q 155.062 41.657 157.280 42.193 Q 159.510 42.742 161.692 42.742 Q 168.553 42.742 171.941 39.146 Q 175.342 35.563 175.342 27.617 L 175.342 6.947 Q 175.342 3.120 176.621 1.950 Q 177.913 0.780 180.802 0.780 L 181.118 0.780 L 181.118 0.000 L 165.202 0.000 L 165.202 30.188 Q 165.202 35.258 163.642 38.062 Q 162.082 40.877 158.413 40.877 Q 155.293 40.877 153.538 38.963 Q 151.783 37.050 151.040 33.772 Q 150.308 30.493 150.308 26.520 L 150.308 6.630 Q 150.308 3.047 151.978 1.913 Q 153.660 0.780 156.073 0.780 L 156.853 0.780 L 156.853 0.000 L 133.453 0.000 Z M 196.250 48.982 Q 194.300 48.982 192.935 50.225 Q 191.570 51.480 191.570 54.137 Q 191.570 56.940 192.935 58.110 Q 194.300 59.280 196.250 59.280 Q 198.115 59.280 199.553 58.110 Q 201.004 56.940 201.004 54.137 Q 201.004 51.480 199.553 50.225 Q 198.115 48.982 196.250 48.982 Z M 184.709 0.000 L 184.709 0.780 L 185.720 0.780 Q 188.060 0.780 189.815 1.828 Q 191.570 2.888 191.570 6.240 L 191.570 35.807 Q 191.570 38.927 189.767 39.975 Q 187.975 41.023 185.720 41.023 L 185.014 41.023 L 185.014 41.803 L 201.710 41.803 L 201.710 6.313 Q 201.710 2.962 203.465 1.865 Q 205.220 0.780 207.560 0.780 L 208.499 0.780 L 208.499 0.000 L 184.709 0.000 Z M 211.070 0.000 L 211.070 0.780 L 211.924 0.780 Q 214.264 0.780 216.019 1.828 Q 217.774 2.888 217.774 6.240 L 217.774 53.272 Q 217.774 56.392 216.019 57.440 Q 214.264 58.500 211.924 58.500 L 211.229 58.500 L 211.229 59.280 L 227.914 59.280 L 227.914 26.130 Q 227.914 24.107 227.914 22.193 Q 227.914 20.280 227.840 18.257 L 242.185 33.698 Q 245.159 36.892 245.159 38.537 Q 245.159 39.938 243.160 40.475 Q 241.174 41.023 236.810 41.023 L 236.810 41.803 L 255.055 41.803 L 255.055 41.023 Q 253.190 41.023 251.740 40.633 Q 250.302 40.243 248.510 38.805 Q 246.719 37.367 243.830 34.247 L 237.590 27.532 L 251.155 7.093 Q 253.032 4.217 254.165 2.888 Q 255.299 1.560 256.079 1.170 Q 256.859 0.780 257.712 0.780 L 257.870 0.780 L 257.870 0.000 L 255.920 0.000 Q 251.155 0.000 248.267 0.463 Q 245.390 0.938 243.440 2.340 Q 241.490 3.742 239.699 6.557 L 230.960 20.353 L 227.914 17.087 L 227.914 6.313 Q 227.914 2.962 229.669 1.865 Q 231.424 0.780 233.764 0.780 L 234.470 0.780 L 234.470 0.000 L 211.070 0.000 Z" fill="#182344"/>
    <path d="M 10.847 -0.622 Q 8.580 -0.622 7.178 0.743 Q 5.777 2.108 5.777 5.302 Q 5.777 8.507 7.178 9.823 Q 8.580 11.152 10.847 11.152 Q 13.028 11.152 14.430 9.823 Q 15.832 8.507 15.832 5.302 Q 15.832 2.108 14.430 0.743 Q 13.028 -0.622 10.847 -0.622 Z" fill="#D3A052" transform="translate(255.0 0)"/>
    <path d="M 18.878 -0.780 Q 13.333 -0.780 10.408 1.950 Q 7.483 4.680 7.483 11.468 L 7.483 41.023 L 1.560 41.023 L 1.560 41.803 Q 8.422 41.803 12.017 44.618 Q 15.527 47.348 16.843 53.357 L 17.623 53.357 L 17.623 41.803 L 27.922 41.803 L 27.922 41.023 L 17.623 41.023 L 17.623 8.190 Q 17.623 0.707 23.400 0.707 Q 25.508 0.707 28.397 1.718 L 28.397 0.938 Q 27.227 0.390 24.692 -0.195 Q 22.157 -0.780 18.878 -0.780 Z M 35.100 37.123 Q 34.320 39.390 33.113 40.207 Q 31.907 41.023 30.188 41.023 L 30.188 41.803 L 52.577 41.803 L 52.577 41.023 L 49.993 41.023 Q 45.557 41.023 45.557 38.220 Q 45.557 36.977 46.337 34.868 L 52.723 17.087 Q 53.978 13.492 55.063 10.481 Q 56.160 7.483 57.330 3.900 Q 57.952 6.167 58.927 8.970 Q 59.902 11.773 60.608 13.808 L 67.628 34.247 Q 68.018 35.332 68.213 36.221 Q 68.408 37.123 68.408 37.903 Q 68.408 39.463 67.080 40.243 Q 65.752 41.023 62.473 41.023 L 60.377 41.023 L 60.377 41.803 L 76.440 41.803 L 76.440 41.023 L 75.343 41.023 Q 72.613 41.023 71.321 39.890 Q 70.042 38.768 68.798 35.173 L 56.708 0.000 L 48.908 0.000 L 35.100 37.123 Z" fill="#9B8AC5" transform="translate(275.0 0)"/>
  </g>

</svg>
