<svg xmlns="http://www.w3.org/2000/svg" width="600" height="600" viewBox="0 0 600 600"><path d="M31,399.2 L32.2,402.8 L35.8,404 L32.2,405.2 L31,408.8 L29.8,405.2 L26.2,404 L29.8,402.8 Z" fill="#c9bfe6" fill-opacity="0.49"/><path d="M460,488 L461.0,491.0 L464,492 L461.0,493.0 L460,496 L459.0,493.0 L456,492 L459.0,491.0 Z" fill="#d3a052" fill-opacity="0.52"/><path d="M151,31.6 L151.9,34.1 L154.4,35 L151.9,35.9 L151,38.4 L150.1,35.9 L147.6,35 L150.1,34.1 Z" fill="#d3a052" fill-opacity="0.68"/><path d="M315,107.2 L315.7,109.3 L317.8,110 L315.7,110.7 L315,112.8 L314.3,110.7 L312.2,110 L314.3,109.3 Z" fill="#b7abd5" fill-opacity="0.42"/><path d="M144,223 L145.0,226.0 L148,227 L145.0,228.0 L144,231 L143.0,228.0 L140,227 L143.0,226.0 Z" fill="#d3a052" fill-opacity="0.61"/><path d="M445,551.6 L445.9,554.1 L448.4,555 L445.9,555.9 L445,558.4 L444.1,555.9 L441.6,555 L444.1,554.1 Z" fill="#b7abd5" fill-opacity="0.69"/><path d="M97,170.9 L98.1,173.9 L101.1,175 L98.1,176.1 L97,179.1 L95.9,176.1 L92.9,175 L95.9,173.9 Z" fill="#c9bfe6" fill-opacity="0.58"/><path d="M146,216.7 L146.6,218.4 L148.3,219 L146.6,219.6 L146,221.3 L145.4,219.6 L143.7,219 L145.4,218.4 Z" fill="#ffffff" fill-opacity="0.55"/><path d="M212,131.8 L212.8,134.2 L215.2,135 L212.8,135.8 L212,138.2 L211.2,135.8 L208.8,135 L211.2,134.2 Z" fill="#ffffff" fill-opacity="0.57"/><path d="M236,147.8 L237.1,150.9 L240.2,152 L237.1,153.1 L236,156.2 L234.9,153.1 L231.8,152 L234.9,150.9 Z" fill="#e9c6a0" fill-opacity="0.47"/><circle cx="219" cy="235" r="0.6" fill="#e9c6a0" fill-opacity="0.55"/><circle cx="61" cy="293" r="1.3" fill="#b7abd5" fill-opacity="0.39"/><circle cx="108" cy="233" r="0.7" fill="#ffffff" fill-opacity="0.64"/><circle cx="234" cy="455" r="0.5" fill="#d3a052" fill-opacity="0.36"/><circle cx="55" cy="545" r="1.2" fill="#e9c6a0" fill-opacity="0.64"/><circle cx="567" cy="326" r="1" fill="#d3a052" fill-opacity="0.65"/><circle cx="171" cy="436" r="0.6" fill="#b7abd5" fill-opacity="0.32"/><circle cx="303" cy="162" r="0.7" fill="#ffffff" fill-opacity="0.54"/><circle cx="554" cy="244" r="1" fill="#b7abd5" fill-opacity="0.52"/><circle cx="419" cy="594" r="1.2" fill="#b7abd5" fill-opacity="0.50"/><circle cx="477" cy="57" r="1.2" fill="#c9bfe6" fill-opacity="0.37"/><circle cx="305" cy="3" r="1.3" fill="#ffffff" fill-opacity="0.35"/><circle cx="104" cy="566" r="1" fill="#ffffff" fill-opacity="0.51"/><circle cx="76" cy="174" r="0.8" fill="#b7abd5" fill-opacity="0.26"/><circle cx="530" cy="130" r="1.2" fill="#d3a052" fill-opacity="0.54"/><circle cx="266" cy="573" r="1" fill="#d3a052" fill-opacity="0.48"/><circle cx="528" cy="53" r="1" fill="#e9c6a0" fill-opacity="0.45"/><circle cx="522" cy="129" r="1" fill="#d3a052" fill-opacity="0.53"/><circle cx="69" cy="330" r="1" fill="#d3a052" fill-opacity="0.54"/><circle cx="378" cy="358" r="1" fill="#b7abd5" fill-opacity="0.30"/><circle cx="54" cy="246" r="0.8" fill="#b7abd5" fill-opacity="0.38"/><circle cx="530" cy="338" r="1.2" fill="#c9bfe6" fill-opacity="0.50"/><circle cx="421" cy="183" r="0.9" fill="#ffffff" fill-opacity="0.56"/><circle cx="544" cy="524" r="0.7" fill="#c9bfe6" fill-opacity="0.45"/><circle cx="325" cy="557" r="1.3" fill="#b7abd5" fill-opacity="0.43"/><circle cx="573" cy="524" r="0.8" fill="#b7abd5" fill-opacity="0.27"/></svg>